<?xml version="1.0" standalone="no"?><!DOCTYPE svg PUBLIC "-//W3C//DTD SVG 1.1//EN" "http://www.w3.org/Graphics/SVG/1.1/DTD/svg11.dtd"><svg t="1738593107479" class="icon" viewBox="0 0 1146 1024" version="1.1" xmlns="http://www.w3.org/2000/svg" p-id="5383" width="223.828125" height="200" xmlns:xlink="http://www.w3.org/1999/xlink"><path d="M998.4 141.913043c-26.713043-23.930435-55.652174-44.521739-86.817391-60.660869-36.173913-18.921739-73.46087-32.834783-113.530435-41.182609-34.504348-7.234783-69.565217-11.130435-104.626087-9.460869-42.852174 2.226087-84.034783 10.017391-124.66087 24.486956-35.06087 12.8-68.452174 28.93913-100.173913 49.530435-22.817391 15.026087-45.078261 31.165217-64.556521 50.086956-109.078261 105.73913-220.93913 267.686957-218.156522 428.52174-4.452174 38.956522 7.791304 120.765217 13.913043 144.13913 10.573913 42.852174 25.6 84.034783 48.417392 123.547826 5.008696-15.582609 8.904348-30.052174 14.469565-44.521739 6.678261-18.921739 15.582609-36.730435 25.6-53.982609 25.6-41.73913 61.217391-68.452174 111.860869-72.904348 37.286957-3.33913 72.904348 2.226087 109.078261 8.904348 49.530435 9.46087 98.504348 21.704348 148.591305 27.269566 32.834783 3.895652 65.113043 5.565217 98.504347 3.33913 86.26087-5.565217 161.947826-37.286957 229.843479-88.486957 165.843478-125.773913 161.947826-354.504348 12.243478-488.626087z m-260.452174 421.843479c-27.826087 0-50.086957-23.373913-50.086956-51.756522 0-27.826087 22.817391-51.2 50.643478-50.643478 28.382609 0 51.2 22.817391 51.756522 51.2 0 28.93913-22.817391 51.756522-52.313044 51.2z" fill="#046FFF" p-id="5384" data-spm-anchor-id="a313x.search_index.0.i16.4e7f3a81wduNu9"></path><path d="M370.086957 455.234783c-37.286957-21.147826-79.582609-33.391304-125.773914-33.391305-81.808696 0-154.713043 38.956522-200.904347 99.06087 28.93913 22.817391 65.113043 40.626087 106.295652 46.747826 99.06087 15.582609 182.53913-71.791304 220.382609-112.417391z" fill="#045DE5" p-id="5385"></path><path d="M602.156522 885.982609c-30.052174-30.608696-67.895652-53.982609-111.304348-66.226087-78.469565-22.26087-159.165217-5.008696-220.382609 40.069565 21.704348 29.495652 51.756522 56.765217 89.043478 74.017391 91.269565 42.295652 195.33913-18.921739 242.643479-47.860869z" fill="#3B97FF" p-id="5386"></path><path d="M427.965217 1001.182609c-23.373913-1.669565-55.095652-6.678261-80.695652-21.704348-45.634783-27.269565-67.33913-52.313043-76.8-120.208696 23.373913-2.782609 49.530435-1.113043 74.573913 9.46087 60.104348 24.486957 75.686957 97.391304 82.921739 132.452174z" fill="#045CE5" p-id="5387"></path></svg>